<svg width="128" height="128" viewBox="0 0 128 128" fill="none" xmlns="http://www.w3.org/2000/svg">
<path d="M99 36C103.418 36 107 39.5817 107 44V85C107 89.4183 103.418 93 99 93H29C24.5817 93 21 89.4183 21 85V44C21 39.5817 24.5817 36 29 36H99ZM29 86C27.8954 86 27 86.8954 27 88C27 89.1046 27.8954 90 29 90H31.957C33.0616 90 33.957 89.1046 33.957 88C33.957 86.8954 33.0616 86 31.957 86H29ZM39.8428 86C38.7382 86 37.8428 86.8955 37.8428 88C37.8428 89.1045 38.7382 90 39.8428 90H45.7568C46.8614 90 47.7568 89.1046 47.7568 88C47.7568 86.8954 46.8614 86 45.7568 86H39.8428ZM53.6426 86C52.5381 86.0002 51.6426 86.8955 51.6426 88C51.6426 89.1045 52.5381 89.9998 53.6426 90H59.5576C60.662 89.9997 61.5576 89.1044 61.5576 88C61.5576 86.8956 60.662 86.0003 59.5576 86H53.6426ZM67.4424 86C66.338 86.0003 65.4424 86.8956 65.4424 88C65.4424 89.1044 66.338 89.9997 67.4424 90H73.3574C74.4619 89.9998 75.3574 89.1045 75.3574 88C75.3574 86.8955 74.4619 86.0002 73.3574 86H67.4424ZM81.2432 86C80.1386 86 79.2432 86.8954 79.2432 88C79.2432 89.1046 80.1386 90 81.2432 90H87.1572C88.2618 90 89.1572 89.1045 89.1572 88C89.1572 86.8955 88.2618 86 87.1572 86H81.2432ZM95.043 86C93.9384 86 93.043 86.8954 93.043 88C93.043 89.1046 93.9384 90 95.043 90H98C99.1046 90 100 89.1046 100 88C100 86.8954 99.1046 86 98 86H95.043ZM29 39C27.8954 39 27 39.8954 27 41C27 42.1046 27.8954 43 29 43H31.957C33.0616 43 33.957 42.1046 33.957 41C33.957 39.8954 33.0616 39 31.957 39H29ZM39.8428 39C38.7382 39 37.8428 39.8955 37.8428 41C37.8428 42.1045 38.7382 43 39.8428 43H45.7568C46.8614 43 47.7568 42.1046 47.7568 41C47.7568 39.8954 46.8614 39 45.7568 39H39.8428ZM53.6426 39C52.5381 39.0002 51.6426 39.8955 51.6426 41C51.6426 42.1045 52.5381 42.9998 53.6426 43H59.5576C60.662 42.9997 61.5576 42.1044 61.5576 41C61.5576 39.8956 60.662 39.0003 59.5576 39H53.6426ZM67.4424 39C66.338 39.0003 65.4424 39.8956 65.4424 41C65.4424 42.1044 66.338 42.9997 67.4424 43H73.3574C74.4619 42.9998 75.3574 42.1045 75.3574 41C75.3574 39.8955 74.4619 39.0002 73.3574 39H67.4424ZM81.2432 39C80.1386 39 79.2432 39.8954 79.2432 41C79.2432 42.1046 80.1386 43 81.2432 43H87.1572C88.2618 43 89.1572 42.1045 89.1572 41C89.1572 39.8955 88.2618 39 87.1572 39H81.2432ZM95.043 39C93.9384 39 93.043 39.8954 93.043 41C93.043 42.1046 93.9384 43 95.043 43H98C99.1046 43 100 42.1046 100 41C100 39.8954 99.1046 39 98 39H95.043Z" fill="black"/>
<path d="M95.3301 47.4589C97.9059 45.1498 102 46.9781 102 50.4374V78.9999C102 81.2091 100.209 82.9999 98 82.9999H30C27.7909 82.9999 26 81.2091 26 78.9999V50.7646C26.0001 47.2715 30.1636 45.4564 32.7227 47.8339L57.9131 71.2382C60.943 74.0529 65.6189 74.0945 68.6982 71.3339L95.3301 47.4589Z" fill="url(#paint0_linear_2003_30)"/>
<defs>
<linearGradient id="paint0_linear_2003_30" x1="104" y1="61" x2="24" y2="61" gradientUnits="userSpaceOnUse">
<stop stop-color="#C779EB"/>
<stop offset="1" stop-color="#533366"/>
</linearGradient>
</defs>
</svg>
